<svg width="350" height="320" viewBox="0 0 350 320" fill="none" xmlns="http://www.w3.org/2000/svg">
<path d="M175 319.646C271.65 319.646 350 248.109 350 159.864C350 71.6186 271.65 0.0817871 175 0.0817871C78.3502 0.0817871 0 71.6186 0 159.864C0 248.109 78.3502 319.646 175 319.646Z" fill="#143D85"/>
<path fill-rule="evenodd" clip-rule="evenodd" d="M236.191 30.1771C239.804 29.5074 240.822 30.7868 243.219 31.0417C241.593 32.1212 238.566 31.9063 236.476 32.536C235.972 32.0362 235.912 31.2216 236.191 30.1771Z" fill="#00783A"/>
<path fill-rule="evenodd" clip-rule="evenodd" d="M205.705 43.3854C204.583 45.1546 204.096 47.4584 201.326 47.7283C199.805 46.4289 202.766 46.0841 203.324 44.6898C201.419 45.7243 199.547 46.7937 196.493 46.7737C196.926 45.7443 196.11 45.6643 195.24 45.6393C194.999 44.0301 196.904 44.375 197.145 43.1855C200.226 43.2905 202.202 45.0596 205.705 43.3854Z" fill="#00783A"/>
<path fill-rule="evenodd" clip-rule="evenodd" d="M243.253 46.4243C242.47 47.6538 240.592 48.9482 239.383 47.7737C240.116 46.5343 241.999 45.2399 243.253 46.4243Z" fill="#00783A"/>
<path fill-rule="evenodd" clip-rule="evenodd" d="M254.85 57.7183C256.333 58.293 258.298 58.5429 259.574 59.2726C258.167 60.637 254.626 59.2926 254.85 57.7183Z" fill="#00783A"/>
<path fill-rule="evenodd" clip-rule="evenodd" d="M46.0418 67.7541C48.3516 67.7291 51.6795 66.9195 50.8092 69.3134C48.4665 69.3334 45.1551 70.1531 46.0418 67.7541Z" fill="#00783A"/>
<path fill-rule="evenodd" clip-rule="evenodd" d="M226.063 61.9771C226.38 64.3758 222.116 65.3104 223.069 62.7067C223.78 62.2119 224.815 61.992 226.063 61.9771Z" fill="#00783A"/>
<path fill-rule="evenodd" clip-rule="evenodd" d="M231.154 61.7513C232.95 61.7213 232.451 63.8902 231.34 64.6898C229.49 64.7148 229.988 62.5459 231.154 61.7513Z" fill="#00783A"/>
<path fill-rule="evenodd" clip-rule="evenodd" d="M82.6487 79.6875C81.5431 81.7015 79.9886 83.3057 76.918 83.5006C77.0931 80.647 80.2842 80.5371 82.6487 79.6875Z" fill="#00783A"/>
<path fill-rule="evenodd" clip-rule="evenodd" d="M221.57 86.4102C224.077 85.8954 224.055 87.2898 224.044 88.6642C221.532 89.1839 221.57 87.7846 221.57 86.4102Z" fill="#00783A"/>
<path fill-rule="evenodd" clip-rule="evenodd" d="M273.849 91.1274C277.243 91.0225 272.771 92.5368 272.727 93.5513C280.149 92.3618 277.051 96.9097 279.684 98.5489C277.03 98.359 276.531 97.9492 275.125 99.9332C273.548 99.9332 275.283 97.4244 275.059 96.3949C273.094 97.2745 268.945 98.6388 266.975 97.3445C267.478 93.6362 270.959 92.6517 273.849 91.1174" fill="#00783A"/>
<path fill-rule="evenodd" clip-rule="evenodd" d="M257.535 94.2456C258.531 93.0212 263.742 92.9512 262.39 95.2001C260.283 96.7244 258.942 94.7653 257.535 94.2456Z" fill="#00783A"/>
<path fill-rule="evenodd" clip-rule="evenodd" d="M229.215 99.6579C230.19 99.6529 231.159 99.5679 232.122 99.5229C232.27 101.797 228.208 101.977 229.215 99.6579Z" fill="#00783A"/>
<path fill-rule="evenodd" clip-rule="evenodd" d="M229.262 107.339C228.638 110.048 220.406 111.752 216.58 113.826C219.815 110.757 225.42 109.878 229.262 107.339Z" fill="#00783A"/>
<path fill-rule="evenodd" clip-rule="evenodd" d="M224.015 159.59C222.219 160.029 220.555 160.599 218.136 160.444C217.162 157.236 212.542 156.786 208.946 155.546C207.069 155.771 209.767 156.531 208.53 157.93C207.501 156.991 207.069 155.596 204.605 155.746C211.639 151.114 221.519 155.856 224.015 159.59Z" fill="#00783A"/>
<path fill-rule="evenodd" clip-rule="evenodd" d="M235.909 161.413C233.671 162.842 229.932 162.917 226.254 163.042C226.643 159.024 234.103 160.504 235.909 161.413Z" fill="#00783A"/>
<path fill-rule="evenodd" clip-rule="evenodd" d="M215.492 162.933C217.205 162.658 218.256 162.903 219.017 163.368C218.951 164.897 213.718 165.652 215.492 162.933Z" fill="#00783A"/>
<path fill-rule="evenodd" clip-rule="evenodd" d="M248.888 169.099L251.05 169C250.552 170.399 249.759 171.503 248.954 172.643C246.053 171.788 250.355 170.999 248.888 169.099Z" fill="#00783A"/>
<path fill-rule="evenodd" clip-rule="evenodd" d="M195.572 311.589C196.289 311.549 197.023 311.509 197.74 311.484C198.107 312.569 198.583 313.618 198.561 315.008C196.952 314.303 195.917 313.209 195.572 311.589Z" fill="#00783A"/>
<path fill-rule="evenodd" clip-rule="evenodd" d="M225.186 38.9673C227.605 37.8479 224.529 33.1452 228.777 31.1162C230.244 31.0412 231.689 30.9762 233.117 30.9163C232.926 31.9108 232.756 32.9103 232.575 33.8948C232.964 35.494 235.991 35.0842 238.043 35.419C245.438 29.2921 247.507 40.0218 254.464 35.8588C254.032 37.0782 252.313 37.1182 251.88 38.3376C255.526 38.4925 258.596 39.0823 260.841 40.2967C261.07 42.1108 258.662 41.5311 258.865 43.3402C261.738 45.789 267.294 46.2387 270.928 48.1178C270.343 50.1518 267.737 50.2918 267.261 52.4207C263.512 52.5107 263.495 49.797 260.66 49.1823C259.582 49.817 257.868 49.867 257.458 51.1014C258.027 54.4297 262.428 54.8895 262.565 58.5527C262.258 60.3168 257.639 61.6562 261.092 62.7556C258.799 63.6102 256.44 60.0969 251.235 61.4213C250.413 56.2238 241.032 57.1084 236.385 56.1889C237.616 54.0599 241.59 54.4497 244.71 54.0349C245.487 53.5801 244.754 51.2663 246.806 50.3967C250.222 49.5221 250.348 52.6856 253.205 50.7016C254.01 48.5376 251.388 48.9774 249.209 49.0923C248.646 40.0518 233.686 40.2817 218.317 41.0413C213.801 38.3776 215.881 30.8913 224.414 31.3061C225.728 32.2106 225.558 34.2196 224.879 36.6035C223.664 32.6154 222.575 38.8174 225.17 38.9673H225.186ZM259.538 59.2673C258.263 58.5377 256.292 58.2928 254.814 57.7131C254.59 59.2923 258.131 60.6367 259.538 59.2673Z" fill="#00783A"/>
<path fill-rule="evenodd" clip-rule="evenodd" d="M124.72 50.0171C128.524 49.7472 134.036 46.9636 137.928 44.6847C145.569 45.8991 154.682 46.5587 162.635 47.1235C163.177 49.0076 160.216 47.6732 160.769 49.5673C164.972 51.4763 173.227 48.7177 174.349 53.6853C175.224 50.9716 177.397 49.4973 179.083 47.5583C177.452 47.1335 175.602 48.5428 178.257 48.183C177.337 49.9521 175.985 47.9381 174.633 48.3479C182.395 44.4898 189.352 53.2555 198.536 47.2734C200.353 47.0935 200.616 48.103 201.952 48.2979C204.201 47.5782 204.957 45.4943 206.331 43.96C206.648 42.1809 203.079 43.3403 202.324 42.3658C202.28 40.2468 203.687 39.4522 204.53 38.1379C211.651 37.2133 209.259 43.4653 211.706 46.084C214.541 46.109 214.404 43.4403 217.179 43.4653C218.865 44.5997 217.557 47.9731 219.018 49.2974C222.324 48.4028 224.18 46.1589 224.546 42.5407C227.71 42.2359 229.183 43.1604 230.737 44.04C228.537 46.5637 230.868 47.3634 230.398 49.9671C227.825 51.1115 225.472 52.4259 221.366 52.151C219.286 56.5589 230.244 55.3145 229.987 60.0422C225.083 57.2435 222.932 62.436 218.29 61.1616C217.316 59.9422 220.682 58.1781 220.107 55.1545C220.321 53.2855 215.006 54.0301 213.709 54.8697C213.835 56.289 216.183 56.0641 217.715 56.4639C210.841 60.367 201.968 63.5554 198.941 72.681C200.178 74.8199 205.061 74.2152 203.643 78.3682C210.633 78.9129 213.058 82.916 220.792 82.916C218.673 88.953 221.52 91.2519 225.466 92.7412C230.392 89.8276 229.615 81.7066 233.851 78.1833C231.279 73.4056 233.485 68.2481 235.948 62.7208C243.556 59.9672 246.26 64.6999 251.252 65.5744C251.619 67.7634 249.156 67.3536 249.134 69.2127C249.675 70.7169 250.447 72.0013 252.117 72.626C256.435 72.4561 259.528 68.0382 262.21 68.623C262.779 74.695 265.281 79.3077 272.248 80.5821C271.871 82.791 267.59 81.4517 267.333 83.7656C268.822 85.5047 271.871 82.851 274.597 83.4307C275.653 84.7901 275.85 86.7941 274.312 88.7681C264.613 92.4113 248.98 90.6022 244.421 98.9781C247.617 99.7777 250.732 94.5703 256.572 95.4748C256.572 97.3189 254.689 97.4539 252.615 97.4289C251.783 102.227 258.253 99.7178 258.061 103.091C261.088 103.081 261.52 100.682 264.262 100.452C261.323 104.001 255.724 105.13 251.509 107.534C251.865 104.845 254.848 104.55 256.616 103.156C251.942 103.091 239.736 105.805 241.421 111.527C237.251 113.946 231.542 115.01 230.485 120.293C229.298 119.813 229.703 118.159 228.044 118.039C228.865 126.53 220.436 130.982 213.884 136.415C214.015 140.778 215.247 144.291 215.247 148.759C210.731 149.993 211.53 143.082 210.359 140.118C207.141 139.438 203.747 138.929 198.969 139.453C197.327 140.628 198.367 141.637 198.312 143.022C192.034 141.367 184.595 141.327 179.888 145.64C176.385 155.236 175.197 167.63 189.538 163.517C190.791 162.577 191.207 160.863 191.755 159.284C193.895 158.454 195.75 157.385 198.607 157.205C200.096 160.643 195.126 163.592 195.192 167.984C196.079 170.073 202.193 168.194 204.289 169.349C203.358 174.511 201.317 180.498 205.608 181.703C209.976 181.168 214.59 179.929 215.466 183.032C218.854 178.584 221.388 177.585 226.293 174.861C227.809 175.836 222.729 179.189 226.024 180.198C228.383 179.069 228.778 176.225 230.628 174.671C233.654 177.19 238.767 178.119 245.921 177.515C247.596 187.045 265.954 183.992 266.583 194.312C264.832 196.665 261.909 197.95 260.398 200.498C262.648 202.078 266.386 196.076 268.806 197.76C268.472 200.229 264.481 199.349 263.814 201.528C266.89 203.612 269.758 199.579 272.199 198.784C278.313 202.912 290.962 202.098 295.013 207.795C293.967 214.502 288.954 217.57 284.646 221.278C282.785 229.299 280.639 237.071 275.16 241.793C267.142 242.363 262.839 246.291 257.913 249.664C257.048 257.815 248.055 270.819 237.36 267.741C235.307 269.64 239.889 270.929 239.15 273.563C237.075 276.751 231.717 276.941 227.535 278.22C225.45 280.254 224.552 283.373 219.527 282.718C219.182 284.532 219.637 285.732 221.06 286.192C217.557 287.851 217.168 292.389 213.233 293.653C212.346 296.512 212.975 298.291 215.98 298.251C210.337 302.818 207.223 309.715 200.945 313.703C202.116 310.25 198.881 310.12 195.898 309.795C198.531 308.021 195.652 301.229 200.934 301.894C201.798 298.825 196.615 297.636 196.85 296.751C197.195 294.133 198.925 296.497 199.724 296.616C202.275 293.913 203.484 287.241 201.902 284.707C208.142 271.179 214.42 254.722 218.433 237.266C208.186 231.633 204.99 220.689 201.957 209.649C201.957 207.785 204.185 207.975 204.661 206.566C201.005 198.474 220.896 189.594 211.295 182.043C205.416 186.116 202.165 180.528 197.852 180.868C198.706 172.187 186.171 173.602 181.322 169.209C172.406 168.974 160.539 167.23 160.993 158.309C155.547 152.672 153.407 144.521 147.2 139.423C145.191 146.085 151.436 150.983 153.467 156.285C145.383 152.157 145.711 144.746 142.564 137.269C132.804 131.907 127.249 120.812 134.178 104.555C136.193 104.98 136.537 105.205 137.884 103.791C136.587 99.6378 133.521 96.8292 127.856 95.9796C129.931 94.2205 128.311 91.3219 126.192 93.091C124.184 92.8561 127.512 92.1215 127.249 91.2719C126.904 89.9875 124.977 89.9026 124.052 89.053C128.869 81.7615 116.548 83.1309 117.654 76.9289C108.458 75.8194 99.4323 74.595 92.7765 71.5515C89.0161 72.0713 89.1804 76.1593 85.3653 76.619C83.4988 75.5146 86.4162 72.9858 87.593 72.3861C83.3784 70.4171 80.6143 75.7195 79.2513 78.673C73.5479 82.951 66.4323 85.9645 59.3879 89.023C60.7891 86.1194 70.9918 85.2548 71.9004 79.5926C67.2533 78.0733 55.3156 78.673 56.9631 70.8169C60.0337 68.0382 67.0782 68.9378 66.9687 63.2706C61.6977 65.7694 54.9543 64.9148 54.5 60.8817C59.1142 57.9682 63.5313 61.9312 66.9906 59.1326C65.7153 55.8192 59.0157 56.6238 58.9062 52.4009C68.7859 48.6927 79.7659 40.7516 89.465 46.2889C100.056 45.2244 111.835 47.4983 120.462 49.6173C121.649 50.6118 119.706 53.9901 122.602 53.6603C124.851 52.101 122.58 49.6123 122.969 47.7332C124.83 48.9076 128.004 46.6487 129.843 45.6492C132.804 46.2089 125.109 47.993 124.698 50.0171H124.72ZM202.039 102.666C205.301 101.412 212.455 101.642 212.477 104.55C210.512 104.146 210.447 105.475 208.755 105.305C207.825 107.069 205.471 112.397 208.044 113.026C209.472 109.243 210.222 104.81 215.373 104.415C215.674 106.754 216.391 108.783 218.739 109.588C218.504 107.069 221.202 107.189 221.656 105.31C215.132 104.77 212.882 100.992 209.325 98.1835C206.686 99.0431 201.842 101.507 202.039 102.666ZM232.089 99.5229L229.183 99.6578C228.175 101.977 232.237 101.797 232.089 99.5229ZM216.539 113.826C220.365 111.752 228.597 110.048 229.221 107.339C225.384 109.878 219.779 110.757 216.539 113.826Z" fill="#00783A"/>
<path fill-rule="evenodd" clip-rule="evenodd" d="M209.364 98.1846C212.921 100.993 215.171 104.766 221.696 105.311C221.241 107.19 218.543 107.07 218.778 109.589C216.425 108.784 215.708 106.755 215.412 104.417C210.267 104.811 209.511 109.239 208.083 113.027C205.51 112.403 207.864 107.07 208.794 105.306C210.486 105.476 210.546 104.147 212.516 104.552C212.495 101.638 205.335 101.408 202.078 102.667C201.876 101.508 206.72 99.0442 209.364 98.1846Z" fill="#00783A"/>
</svg>
